<svg xmlns="http://www.w3.org/2000/svg" viewBox="0 0 606.6 206.61"><g id="Layer_2" data-name="Layer 2"><g id="Layer_1-2" data-name="Layer 1"><polygon points="461.94 64.87 486.17 81.05 499.18 68.03 501.13 91.05 525.36 107.22 502.34 105.27 504.3 128.28 488.12 104.06 465.11 102.1 478.12 89.09 461.94 64.87"/><path d="M92.92,70.67H59.5L71.08,82.54,0,151.58H32.79L45.87,138.5h80l13,13h32.59ZM64.66,119.86,86.33,98.3l21.33,21.56Z"/><path d="M165,97.1h24.71v30.61s.23,5.33,6.76,5.33h51.14s6.59-.17,6.59-5.61V97.1h24.71v38.06s-.86,16.42-18.58,16.42H182.5a13.81,13.81,0,0,1-5-.91C173.06,149,165,144.49,165,134.53Z"/><polygon points="584.44 153.2 580.41 173.6 606.6 198.77 577.91 186.21 573.88 206.61 560.18 178.45 531.5 165.89 551.72 161.04 538.02 132.88 564.22 158.05 584.44 153.2"/><path d="M389.85,98A273,273,0,0,0,367.68,78.8h-36.9l23.6,18.3h-50.6s-20.4-.27-20.4,17.47V132.3s-2.07,19.28,20.56,19.28h76.35s17.66.9,17.66-18.14v-19S399,107.15,389.85,98Zm-23.43,34.78H312.76s-8.94.34-8.94-8,7.34-9.06,8.94-9.06h52.63s10.2-.57,10.2,7.91S369.29,132.76,366.42,132.76Z"/><path d="M532.47,97.24H447.7c-2.59,0-14.41,2.17-14.41,28.55s14.41,25.3,14.41,25.3h86.43c4.62,0,14.77-2.16,14.77-28.91S532.47,97.24,532.47,97.24Zm-14.66,35.64H464.16s-9,.35-9-8,7.34-9.06,9-9.06h52.62s10.2-.57,10.2,7.91S520.68,132.88,517.81,132.88Z"/><rect x="403.45" y="97.22" width="24.85" height="53.89"/><polygon points="365.15 31.74 391.37 38.9 399.82 22.56 407.57 43.33 433.79 50.5 412.35 56.17 420.1 76.94 399.11 59.68 377.68 65.35 386.14 49 365.15 31.74"/><polygon points="304.19 0 314.9 16 340.54 11.86 321.52 25.89 332.24 41.89 309.77 34.56 290.76 48.59 295.89 30.03 273.43 22.7 299.06 18.56 304.19 0"/><polygon points="205.75 25.13 221.78 36.12 245.52 22.53 231.69 42.91 247.73 53.9 223.15 55.51 209.32 75.9 207.96 56.51 183.38 58.12 207.11 44.52 205.75 25.13"/><polygon points="122.87 93.81 141.72 99.72 162.65 78.8 153.36 103.38 172.21 109.29 147.63 118.57 138.34 143.15 132.43 124.31 107.85 133.59 128.78 112.66 122.87 93.81"/></g></g></svg>